<mxfile host="app.diagrams.net" modified="2024-06-02T18:22:24.548Z" agent="Mozilla/5.0 (Windows NT 10.0; Win64; x64) AppleWebKit/537.36 (KHTML, like Gecko) Chrome/125.0.0.0 Safari/537.36" etag="uoXfmBBw8zL5QxNqVItv" version="24.4.13" type="github">
  <diagram name="Page-1" id="5d7acffa-a066-3a61-03fe-96351882024d">
    <mxGraphModel dx="1434" dy="738" grid="1" gridSize="10" guides="1" tooltips="1" connect="1" arrows="1" fold="1" page="1" pageScale="1" pageWidth="1100" pageHeight="850" background="#ffffff" math="0" shadow="0">
      <root>
        <mxCell id="0" />
        <mxCell id="1" parent="0" />
        <mxCell id="gM_SMo16ki_0aqtKTnfX-9" style="edgeStyle=orthogonalEdgeStyle;rounded=0;orthogonalLoop=1;jettySize=auto;html=1;" parent="1" source="21ea969265ad0168-10" target="gM_SMo16ki_0aqtKTnfX-8" edge="1">
          <mxGeometry relative="1" as="geometry">
            <Array as="points">
              <mxPoint x="910" y="115" />
              <mxPoint x="910" y="65" />
            </Array>
          </mxGeometry>
        </mxCell>
        <mxCell id="gM_SMo16ki_0aqtKTnfX-71" style="edgeStyle=orthogonalEdgeStyle;rounded=0;orthogonalLoop=1;jettySize=auto;html=1;" parent="1" source="21ea969265ad0168-10" target="21ea969265ad0168-30" edge="1">
          <mxGeometry relative="1" as="geometry">
            <Array as="points">
              <mxPoint x="455" y="60" />
              <mxPoint x="455" y="35" />
            </Array>
          </mxGeometry>
        </mxCell>
        <mxCell id="21ea969265ad0168-10" value="AWS Cloud" style="swimlane;html=1;fontStyle=0;childLayout=stackLayout;horizontal=1;startSize=26;fillColor=#e0e0e0;horizontalStack=0;resizeParent=1;resizeLast=0;collapsible=1;marginBottom=0;swimlaneFillColor=#ffffff;align=center;rounded=1;shadow=0;comic=0;labelBackgroundColor=none;strokeWidth=1;fontFamily=Verdana;fontSize=12" parent="1" vertex="1">
          <mxGeometry x="480" y="50" width="360" height="110" as="geometry" />
        </mxCell>
        <mxCell id="21ea969265ad0168-11" value="Table 1: Energy Log {day, energyProduced, avgSunIrradiance}" style="text;html=1;strokeColor=none;fillColor=none;spacingLeft=4;spacingRight=4;whiteSpace=wrap;overflow=hidden;rotatable=0;points=[[0,0.5],[1,0.5]];portConstraint=eastwest;" parent="21ea969265ad0168-10" vertex="1">
          <mxGeometry y="26" width="360" height="26" as="geometry" />
        </mxCell>
        <mxCell id="21ea969265ad0168-12" value="Table 2: Trade Log {energyBought, energySold, day, earnings}" style="text;html=1;strokeColor=none;fillColor=none;spacingLeft=4;spacingRight=4;whiteSpace=wrap;overflow=hidden;rotatable=0;points=[[0,0.5],[1,0.5]];portConstraint=eastwest;" parent="21ea969265ad0168-10" vertex="1">
          <mxGeometry y="52" width="360" height="26" as="geometry" />
        </mxCell>
        <mxCell id="21ea969265ad0168-52" value="Table 3: Usage Log {energyUsed, day}" style="text;html=1;strokeColor=none;fillColor=none;spacingLeft=4;spacingRight=4;whiteSpace=wrap;overflow=hidden;rotatable=0;points=[[0,0.5],[1,0.5]];portConstraint=eastwest;" parent="21ea969265ad0168-10" vertex="1">
          <mxGeometry y="78" width="360" height="26" as="geometry" />
        </mxCell>
        <mxCell id="21ea969265ad0168-14" value="Laptop (Local Device)" style="swimlane;html=1;fontStyle=0;childLayout=stackLayout;horizontal=1;startSize=26;fillColor=#e0e0e0;horizontalStack=0;resizeParent=1;resizeLast=0;collapsible=1;marginBottom=0;swimlaneFillColor=#ffffff;align=center;rounded=1;shadow=0;comic=0;labelBackgroundColor=none;strokeWidth=1;fontFamily=Verdana;fontSize=12" parent="1" vertex="1">
          <mxGeometry x="60" y="100" width="160" height="110" as="geometry" />
        </mxCell>
        <mxCell id="21ea969265ad0168-15" value="React WebServer" style="text;html=1;strokeColor=none;fillColor=none;spacingLeft=4;spacingRight=4;whiteSpace=wrap;overflow=hidden;rotatable=0;points=[[0,0.5],[1,0.5]];portConstraint=eastwest;" parent="21ea969265ad0168-14" vertex="1">
          <mxGeometry y="26" width="160" height="26" as="geometry" />
        </mxCell>
        <mxCell id="21ea969265ad0168-16" value="Buy Sell Algorithm" style="text;html=1;strokeColor=none;fillColor=none;spacingLeft=4;spacingRight=4;whiteSpace=wrap;overflow=hidden;rotatable=0;points=[[0,0.5],[1,0.5]];portConstraint=eastwest;" parent="21ea969265ad0168-14" vertex="1">
          <mxGeometry y="52" width="160" height="26" as="geometry" />
        </mxCell>
        <mxCell id="21ea969265ad0168-17" value="TCP Server" style="text;html=1;strokeColor=none;fillColor=none;spacingLeft=4;spacingRight=4;whiteSpace=wrap;overflow=hidden;rotatable=0;points=[[0,0.5],[1,0.5]];portConstraint=eastwest;" parent="21ea969265ad0168-14" vertex="1">
          <mxGeometry y="78" width="160" height="26" as="geometry" />
        </mxCell>
        <mxCell id="21ea969265ad0168-22" value="Microcontrollers (Raspberry Pi Pico)" style="swimlane;html=1;fontStyle=0;childLayout=stackLayout;horizontal=1;startSize=26;fillColor=#e0e0e0;horizontalStack=0;resizeParent=1;resizeLast=0;collapsible=1;marginBottom=0;swimlaneFillColor=#ffffff;align=center;rounded=1;shadow=0;comic=0;labelBackgroundColor=none;strokeWidth=1;fontFamily=Verdana;fontSize=12" parent="1" vertex="1">
          <mxGeometry x="607.5" y="259" width="262.5" height="182" as="geometry">
            <mxRectangle x="310" y="320" width="260" height="30" as="alternateBounds" />
          </mxGeometry>
        </mxCell>
        <mxCell id="21ea969265ad0168-23" value="Micro 1: Controls Solar Input" style="text;html=1;strokeColor=none;fillColor=none;spacingLeft=4;spacingRight=4;whiteSpace=wrap;overflow=hidden;rotatable=0;points=[[0,0.5],[1,0.5]];portConstraint=eastwest;" parent="21ea969265ad0168-22" vertex="1">
          <mxGeometry y="26" width="262.5" height="26" as="geometry" />
        </mxCell>
        <mxCell id="21ea969265ad0168-24" value="Micro 2: Controls input and output of Grid&amp;nbsp;" style="text;html=1;strokeColor=none;fillColor=none;spacingLeft=4;spacingRight=4;whiteSpace=wrap;overflow=hidden;rotatable=0;points=[[0,0.5],[1,0.5]];portConstraint=eastwest;" parent="21ea969265ad0168-22" vertex="1">
          <mxGeometry y="52" width="262.5" height="26" as="geometry" />
        </mxCell>
        <mxCell id="gM_SMo16ki_0aqtKTnfX-16" value="&lt;div&gt;Micro 3: Controls input and output of storage&lt;/div&gt;" style="text;html=1;strokeColor=none;fillColor=none;spacingLeft=4;spacingRight=4;whiteSpace=wrap;overflow=hidden;rotatable=0;points=[[0,0.5],[1,0.5]];portConstraint=eastwest;" parent="21ea969265ad0168-22" vertex="1">
          <mxGeometry y="78" width="262.5" height="26" as="geometry" />
        </mxCell>
        <mxCell id="gM_SMo16ki_0aqtKTnfX-17" value="Micro 4: Controls Load 1" style="text;html=1;strokeColor=none;fillColor=none;spacingLeft=4;spacingRight=4;whiteSpace=wrap;overflow=hidden;rotatable=0;points=[[0,0.5],[1,0.5]];portConstraint=eastwest;" parent="21ea969265ad0168-22" vertex="1">
          <mxGeometry y="104" width="262.5" height="26" as="geometry" />
        </mxCell>
        <mxCell id="gM_SMo16ki_0aqtKTnfX-18" value="Micro 5: Controls Load 2" style="text;html=1;strokeColor=none;fillColor=none;spacingLeft=4;spacingRight=4;whiteSpace=wrap;overflow=hidden;rotatable=0;points=[[0,0.5],[1,0.5]];portConstraint=eastwest;" parent="21ea969265ad0168-22" vertex="1">
          <mxGeometry y="130" width="262.5" height="26" as="geometry" />
        </mxCell>
        <mxCell id="gM_SMo16ki_0aqtKTnfX-19" value="Micro 6: Controls Load 3" style="text;html=1;strokeColor=none;fillColor=none;spacingLeft=4;spacingRight=4;whiteSpace=wrap;overflow=hidden;rotatable=0;points=[[0,0.5],[1,0.5]];portConstraint=eastwest;" parent="21ea969265ad0168-22" vertex="1">
          <mxGeometry y="156" width="262.5" height="26" as="geometry" />
        </mxCell>
        <mxCell id="gM_SMo16ki_0aqtKTnfX-72" style="edgeStyle=orthogonalEdgeStyle;rounded=0;orthogonalLoop=1;jettySize=auto;html=1;entryX=0.5;entryY=0;entryDx=0;entryDy=0;" parent="1" source="21ea969265ad0168-30" target="21ea969265ad0168-14" edge="1">
          <mxGeometry relative="1" as="geometry">
            <Array as="points">
              <mxPoint x="140" y="35" />
            </Array>
          </mxGeometry>
        </mxCell>
        <mxCell id="21ea969265ad0168-30" value="API CALL (GET)" style="html=1;rounded=0;shadow=0;comic=0;labelBackgroundColor=none;strokeWidth=2;fontFamily=Verdana;fontSize=12;align=center;shape=mxgraph.ios7ui.horLines;" parent="1" vertex="1">
          <mxGeometry x="210" y="20" width="100" height="30" as="geometry" />
        </mxCell>
        <mxCell id="gM_SMo16ki_0aqtKTnfX-1" value="Hardware" style="swimlane;startSize=20;horizontal=1;containerType=tree;newEdgeStyle={&quot;edgeStyle&quot;:&quot;elbowEdgeStyle&quot;,&quot;startArrow&quot;:&quot;none&quot;,&quot;endArrow&quot;:&quot;none&quot;};" parent="1" vertex="1">
          <mxGeometry x="70" y="500" width="870" height="280" as="geometry" />
        </mxCell>
        <UserObject label="Solar Panel" treeRoot="1" id="gM_SMo16ki_0aqtKTnfX-4">
          <mxCell style="whiteSpace=wrap;html=1;align=center;treeFolding=1;treeMoving=1;newEdgeStyle={&quot;edgeStyle&quot;:&quot;elbowEdgeStyle&quot;,&quot;startArrow&quot;:&quot;none&quot;,&quot;endArrow&quot;:&quot;none&quot;};" parent="gM_SMo16ki_0aqtKTnfX-1" vertex="1">
            <mxGeometry x="30" y="120" width="120" height="60" as="geometry" />
          </mxCell>
        </UserObject>
        <mxCell id="gM_SMo16ki_0aqtKTnfX-34" style="edgeStyle=orthogonalEdgeStyle;rounded=0;orthogonalLoop=1;jettySize=auto;html=1;entryX=0;entryY=0.5;entryDx=0;entryDy=0;" parent="gM_SMo16ki_0aqtKTnfX-1" source="gM_SMo16ki_0aqtKTnfX-20" target="gM_SMo16ki_0aqtKTnfX-32" edge="1">
          <mxGeometry relative="1" as="geometry" />
        </mxCell>
        <mxCell id="gM_SMo16ki_0aqtKTnfX-20" value="SMPS&amp;nbsp;&lt;br&gt;(Controller 1)" style="rounded=1;whiteSpace=wrap;html=1;" parent="gM_SMo16ki_0aqtKTnfX-1" vertex="1">
          <mxGeometry x="230" y="130" width="90" height="40" as="geometry" />
        </mxCell>
        <mxCell id="gM_SMo16ki_0aqtKTnfX-22" value="" style="endArrow=classic;html=1;rounded=0;exitX=1;exitY=0.5;exitDx=0;exitDy=0;entryX=0;entryY=0.5;entryDx=0;entryDy=0;" parent="gM_SMo16ki_0aqtKTnfX-1" source="gM_SMo16ki_0aqtKTnfX-4" target="gM_SMo16ki_0aqtKTnfX-20" edge="1">
          <mxGeometry width="50" height="50" relative="1" as="geometry">
            <mxPoint x="360" y="110" as="sourcePoint" />
            <mxPoint x="410" y="60" as="targetPoint" />
            <Array as="points" />
          </mxGeometry>
        </mxCell>
        <mxCell id="gM_SMo16ki_0aqtKTnfX-27" style="edgeStyle=orthogonalEdgeStyle;rounded=0;orthogonalLoop=1;jettySize=auto;html=1;entryX=0;entryY=0.5;entryDx=0;entryDy=0;" parent="gM_SMo16ki_0aqtKTnfX-1" source="gM_SMo16ki_0aqtKTnfX-23" target="gM_SMo16ki_0aqtKTnfX-26" edge="1">
          <mxGeometry relative="1" as="geometry" />
        </mxCell>
        <mxCell id="gM_SMo16ki_0aqtKTnfX-23" value="External Grid" style="rounded=0;whiteSpace=wrap;html=1;" parent="gM_SMo16ki_0aqtKTnfX-1" vertex="1">
          <mxGeometry x="100" y="40" width="120" height="60" as="geometry" />
        </mxCell>
        <mxCell id="gM_SMo16ki_0aqtKTnfX-31" style="edgeStyle=orthogonalEdgeStyle;rounded=0;orthogonalLoop=1;jettySize=auto;html=1;entryX=0;entryY=0.5;entryDx=0;entryDy=0;" parent="gM_SMo16ki_0aqtKTnfX-1" source="gM_SMo16ki_0aqtKTnfX-24" target="gM_SMo16ki_0aqtKTnfX-28" edge="1">
          <mxGeometry relative="1" as="geometry" />
        </mxCell>
        <mxCell id="gM_SMo16ki_0aqtKTnfX-24" value="Flywheel Storage" style="rounded=0;whiteSpace=wrap;html=1;" parent="gM_SMo16ki_0aqtKTnfX-1" vertex="1">
          <mxGeometry x="100" y="200" width="120" height="60" as="geometry" />
        </mxCell>
        <mxCell id="gM_SMo16ki_0aqtKTnfX-33" style="edgeStyle=orthogonalEdgeStyle;rounded=0;orthogonalLoop=1;jettySize=auto;html=1;entryX=0.5;entryY=0;entryDx=0;entryDy=0;" parent="gM_SMo16ki_0aqtKTnfX-1" source="gM_SMo16ki_0aqtKTnfX-26" target="gM_SMo16ki_0aqtKTnfX-32" edge="1">
          <mxGeometry relative="1" as="geometry" />
        </mxCell>
        <mxCell id="gM_SMo16ki_0aqtKTnfX-60" style="edgeStyle=orthogonalEdgeStyle;rounded=0;orthogonalLoop=1;jettySize=auto;html=1;entryX=1;entryY=0.5;entryDx=0;entryDy=0;" parent="gM_SMo16ki_0aqtKTnfX-1" source="gM_SMo16ki_0aqtKTnfX-26" target="gM_SMo16ki_0aqtKTnfX-23" edge="1">
          <mxGeometry relative="1" as="geometry" />
        </mxCell>
        <mxCell id="gM_SMo16ki_0aqtKTnfX-26" value="SMPS&amp;nbsp;&lt;br&gt;(Controller 2)" style="rounded=1;whiteSpace=wrap;html=1;" parent="gM_SMo16ki_0aqtKTnfX-1" vertex="1">
          <mxGeometry x="270" y="50" width="90" height="40" as="geometry" />
        </mxCell>
        <mxCell id="gM_SMo16ki_0aqtKTnfX-35" style="edgeStyle=orthogonalEdgeStyle;rounded=0;orthogonalLoop=1;jettySize=auto;html=1;entryX=0.5;entryY=1;entryDx=0;entryDy=0;" parent="gM_SMo16ki_0aqtKTnfX-1" source="gM_SMo16ki_0aqtKTnfX-28" target="gM_SMo16ki_0aqtKTnfX-32" edge="1">
          <mxGeometry relative="1" as="geometry" />
        </mxCell>
        <mxCell id="gM_SMo16ki_0aqtKTnfX-63" style="edgeStyle=orthogonalEdgeStyle;rounded=0;orthogonalLoop=1;jettySize=auto;html=1;entryX=1;entryY=0.5;entryDx=0;entryDy=0;" parent="gM_SMo16ki_0aqtKTnfX-1" source="gM_SMo16ki_0aqtKTnfX-28" target="gM_SMo16ki_0aqtKTnfX-24" edge="1">
          <mxGeometry relative="1" as="geometry" />
        </mxCell>
        <mxCell id="gM_SMo16ki_0aqtKTnfX-28" value="SMPS&amp;nbsp;&lt;br&gt;(Controller 3)" style="rounded=1;whiteSpace=wrap;html=1;" parent="gM_SMo16ki_0aqtKTnfX-1" vertex="1">
          <mxGeometry x="270" y="210" width="90" height="40" as="geometry" />
        </mxCell>
        <mxCell id="gM_SMo16ki_0aqtKTnfX-50" style="edgeStyle=orthogonalEdgeStyle;rounded=0;orthogonalLoop=1;jettySize=auto;html=1;entryX=0;entryY=0.5;entryDx=0;entryDy=0;" parent="gM_SMo16ki_0aqtKTnfX-1" source="gM_SMo16ki_0aqtKTnfX-32" target="gM_SMo16ki_0aqtKTnfX-47" edge="1">
          <mxGeometry relative="1" as="geometry" />
        </mxCell>
        <mxCell id="gM_SMo16ki_0aqtKTnfX-51" style="edgeStyle=orthogonalEdgeStyle;rounded=0;orthogonalLoop=1;jettySize=auto;html=1;entryX=0;entryY=0.5;entryDx=0;entryDy=0;" parent="gM_SMo16ki_0aqtKTnfX-1" source="gM_SMo16ki_0aqtKTnfX-32" target="gM_SMo16ki_0aqtKTnfX-48" edge="1">
          <mxGeometry relative="1" as="geometry" />
        </mxCell>
        <mxCell id="gM_SMo16ki_0aqtKTnfX-59" style="edgeStyle=orthogonalEdgeStyle;rounded=0;orthogonalLoop=1;jettySize=auto;html=1;entryX=0;entryY=0.5;entryDx=0;entryDy=0;" parent="gM_SMo16ki_0aqtKTnfX-1" source="gM_SMo16ki_0aqtKTnfX-32" target="gM_SMo16ki_0aqtKTnfX-49" edge="1">
          <mxGeometry relative="1" as="geometry" />
        </mxCell>
        <mxCell id="gM_SMo16ki_0aqtKTnfX-61" style="edgeStyle=orthogonalEdgeStyle;rounded=0;orthogonalLoop=1;jettySize=auto;html=1;entryX=1;entryY=0.5;entryDx=0;entryDy=0;" parent="gM_SMo16ki_0aqtKTnfX-1" source="gM_SMo16ki_0aqtKTnfX-32" target="gM_SMo16ki_0aqtKTnfX-26" edge="1">
          <mxGeometry relative="1" as="geometry">
            <Array as="points">
              <mxPoint x="480" y="70" />
            </Array>
          </mxGeometry>
        </mxCell>
        <mxCell id="gM_SMo16ki_0aqtKTnfX-62" style="edgeStyle=orthogonalEdgeStyle;rounded=0;orthogonalLoop=1;jettySize=auto;html=1;" parent="gM_SMo16ki_0aqtKTnfX-1" source="gM_SMo16ki_0aqtKTnfX-32" edge="1">
          <mxGeometry relative="1" as="geometry">
            <mxPoint x="360" y="230" as="targetPoint" />
            <Array as="points">
              <mxPoint x="480" y="230" />
            </Array>
          </mxGeometry>
        </mxCell>
        <mxCell id="gM_SMo16ki_0aqtKTnfX-32" value="Bus Connector" style="rounded=0;whiteSpace=wrap;html=1;" parent="gM_SMo16ki_0aqtKTnfX-1" vertex="1">
          <mxGeometry x="420" y="120" width="120" height="60" as="geometry" />
        </mxCell>
        <mxCell id="gM_SMo16ki_0aqtKTnfX-39" value="Load 1" style="ellipse;whiteSpace=wrap;html=1;aspect=fixed;" parent="gM_SMo16ki_0aqtKTnfX-1" vertex="1">
          <mxGeometry x="780" y="40" width="60" height="60" as="geometry" />
        </mxCell>
        <mxCell id="gM_SMo16ki_0aqtKTnfX-43" value="Load 2" style="ellipse;whiteSpace=wrap;html=1;aspect=fixed;" parent="gM_SMo16ki_0aqtKTnfX-1" vertex="1">
          <mxGeometry x="780" y="120" width="60" height="60" as="geometry" />
        </mxCell>
        <mxCell id="gM_SMo16ki_0aqtKTnfX-42" value="Load 3" style="ellipse;whiteSpace=wrap;html=1;aspect=fixed;" parent="gM_SMo16ki_0aqtKTnfX-1" vertex="1">
          <mxGeometry x="780" y="200" width="60" height="60" as="geometry" />
        </mxCell>
        <mxCell id="gM_SMo16ki_0aqtKTnfX-57" style="edgeStyle=orthogonalEdgeStyle;rounded=0;orthogonalLoop=1;jettySize=auto;html=1;" parent="gM_SMo16ki_0aqtKTnfX-1" source="gM_SMo16ki_0aqtKTnfX-47" target="gM_SMo16ki_0aqtKTnfX-39" edge="1">
          <mxGeometry relative="1" as="geometry" />
        </mxCell>
        <mxCell id="gM_SMo16ki_0aqtKTnfX-47" value="SMPS&amp;nbsp;&lt;br&gt;(Controller 4)" style="rounded=1;whiteSpace=wrap;html=1;" parent="gM_SMo16ki_0aqtKTnfX-1" vertex="1">
          <mxGeometry x="670" y="50" width="90" height="40" as="geometry" />
        </mxCell>
        <mxCell id="gM_SMo16ki_0aqtKTnfX-58" style="edgeStyle=orthogonalEdgeStyle;rounded=0;orthogonalLoop=1;jettySize=auto;html=1;entryX=0;entryY=0.5;entryDx=0;entryDy=0;" parent="gM_SMo16ki_0aqtKTnfX-1" source="gM_SMo16ki_0aqtKTnfX-48" target="gM_SMo16ki_0aqtKTnfX-43" edge="1">
          <mxGeometry relative="1" as="geometry" />
        </mxCell>
        <mxCell id="gM_SMo16ki_0aqtKTnfX-48" value="SMPS&amp;nbsp;&lt;br&gt;(Controller 5)" style="rounded=1;whiteSpace=wrap;html=1;" parent="gM_SMo16ki_0aqtKTnfX-1" vertex="1">
          <mxGeometry x="670" y="130" width="90" height="40" as="geometry" />
        </mxCell>
        <mxCell id="gM_SMo16ki_0aqtKTnfX-53" style="edgeStyle=orthogonalEdgeStyle;rounded=0;orthogonalLoop=1;jettySize=auto;html=1;" parent="gM_SMo16ki_0aqtKTnfX-1" source="gM_SMo16ki_0aqtKTnfX-49" target="gM_SMo16ki_0aqtKTnfX-42" edge="1">
          <mxGeometry relative="1" as="geometry" />
        </mxCell>
        <mxCell id="gM_SMo16ki_0aqtKTnfX-49" value="SMPS&amp;nbsp;&lt;br&gt;(Controller 6)" style="rounded=1;whiteSpace=wrap;html=1;" parent="gM_SMo16ki_0aqtKTnfX-1" vertex="1">
          <mxGeometry x="670" y="210" width="90" height="40" as="geometry" />
        </mxCell>
        <mxCell id="gM_SMo16ki_0aqtKTnfX-73" style="edgeStyle=orthogonalEdgeStyle;rounded=0;orthogonalLoop=1;jettySize=auto;html=1;entryX=1;entryY=0.5;entryDx=0;entryDy=0;" parent="1" source="gM_SMo16ki_0aqtKTnfX-8" target="21ea969265ad0168-12" edge="1">
          <mxGeometry relative="1" as="geometry">
            <Array as="points">
              <mxPoint x="910" y="65" />
              <mxPoint x="910" y="115" />
            </Array>
          </mxGeometry>
        </mxCell>
        <mxCell id="gM_SMo16ki_0aqtKTnfX-8" value="Lambda Database" style="strokeWidth=2;html=1;shape=mxgraph.flowchart.database;whiteSpace=wrap;" parent="1" vertex="1">
          <mxGeometry x="930" y="30" width="80" height="70" as="geometry" />
        </mxCell>
        <mxCell id="gM_SMo16ki_0aqtKTnfX-64" value="TCP Connection" style="text;html=1;align=center;verticalAlign=middle;whiteSpace=wrap;rounded=0;" parent="1" vertex="1">
          <mxGeometry x="310" y="200" width="130" height="36" as="geometry" />
        </mxCell>
        <mxCell id="gM_SMo16ki_0aqtKTnfX-65" style="edgeStyle=orthogonalEdgeStyle;rounded=0;orthogonalLoop=1;jettySize=auto;html=1;entryX=0.5;entryY=0;entryDx=0;entryDy=0;" parent="1" source="21ea969265ad0168-23" target="gM_SMo16ki_0aqtKTnfX-20" edge="1">
          <mxGeometry relative="1" as="geometry" />
        </mxCell>
        <mxCell id="gM_SMo16ki_0aqtKTnfX-66" style="edgeStyle=orthogonalEdgeStyle;rounded=0;orthogonalLoop=1;jettySize=auto;html=1;entryX=0.5;entryY=0;entryDx=0;entryDy=0;" parent="1" source="21ea969265ad0168-24" target="gM_SMo16ki_0aqtKTnfX-26" edge="1">
          <mxGeometry relative="1" as="geometry" />
        </mxCell>
        <mxCell id="gM_SMo16ki_0aqtKTnfX-68" style="edgeStyle=orthogonalEdgeStyle;rounded=0;orthogonalLoop=1;jettySize=auto;html=1;entryX=0.75;entryY=0;entryDx=0;entryDy=0;" parent="1" source="gM_SMo16ki_0aqtKTnfX-16" target="gM_SMo16ki_0aqtKTnfX-28" edge="1">
          <mxGeometry relative="1" as="geometry" />
        </mxCell>
        <mxCell id="gM_SMo16ki_0aqtKTnfX-81" style="edgeStyle=orthogonalEdgeStyle;rounded=0;orthogonalLoop=1;jettySize=auto;html=1;entryX=0;entryY=0.5;entryDx=0;entryDy=0;" parent="1" source="gM_SMo16ki_0aqtKTnfX-75" target="21ea969265ad0168-12" edge="1">
          <mxGeometry relative="1" as="geometry" />
        </mxCell>
        <mxCell id="gM_SMo16ki_0aqtKTnfX-75" value="API CALL (POST)" style="html=1;rounded=0;shadow=0;comic=0;labelBackgroundColor=none;strokeWidth=2;fontFamily=Verdana;fontSize=12;align=center;shape=mxgraph.ios7ui.horLines;" parent="1" vertex="1">
          <mxGeometry x="310" y="110" width="115" height="30" as="geometry" />
        </mxCell>
        <mxCell id="gM_SMo16ki_0aqtKTnfX-76" style="edgeStyle=orthogonalEdgeStyle;rounded=0;orthogonalLoop=1;jettySize=auto;html=1;entryX=0.591;entryY=-0.1;entryDx=0;entryDy=0;entryPerimeter=0;" parent="1" source="gM_SMo16ki_0aqtKTnfX-17" target="gM_SMo16ki_0aqtKTnfX-47" edge="1">
          <mxGeometry relative="1" as="geometry">
            <Array as="points">
              <mxPoint x="950" y="376" />
              <mxPoint x="950" y="530" />
              <mxPoint x="793" y="530" />
            </Array>
          </mxGeometry>
        </mxCell>
        <mxCell id="gM_SMo16ki_0aqtKTnfX-77" style="edgeStyle=orthogonalEdgeStyle;rounded=0;orthogonalLoop=1;jettySize=auto;html=1;entryX=0.5;entryY=0;entryDx=0;entryDy=0;" parent="1" source="gM_SMo16ki_0aqtKTnfX-18" target="gM_SMo16ki_0aqtKTnfX-48" edge="1">
          <mxGeometry relative="1" as="geometry">
            <Array as="points">
              <mxPoint x="970" y="402" />
              <mxPoint x="970" y="610" />
              <mxPoint x="785" y="610" />
            </Array>
          </mxGeometry>
        </mxCell>
        <mxCell id="gM_SMo16ki_0aqtKTnfX-78" style="edgeStyle=orthogonalEdgeStyle;rounded=0;orthogonalLoop=1;jettySize=auto;html=1;entryX=0.5;entryY=0;entryDx=0;entryDy=0;" parent="1" source="gM_SMo16ki_0aqtKTnfX-19" target="gM_SMo16ki_0aqtKTnfX-49" edge="1">
          <mxGeometry relative="1" as="geometry">
            <Array as="points">
              <mxPoint x="1000" y="428" />
              <mxPoint x="1000" y="690" />
              <mxPoint x="785" y="690" />
            </Array>
          </mxGeometry>
        </mxCell>
        <mxCell id="gM_SMo16ki_0aqtKTnfX-80" style="edgeStyle=orthogonalEdgeStyle;rounded=0;orthogonalLoop=1;jettySize=auto;html=1;" parent="1" source="21ea969265ad0168-16" target="gM_SMo16ki_0aqtKTnfX-75" edge="1">
          <mxGeometry relative="1" as="geometry">
            <Array as="points">
              <mxPoint x="260" y="165" />
              <mxPoint x="260" y="125" />
            </Array>
          </mxGeometry>
        </mxCell>
        <mxCell id="gM_SMo16ki_0aqtKTnfX-82" value="Design Choices" style="whiteSpace=wrap;html=1;rounded=1;arcSize=50;align=center;verticalAlign=middle;strokeWidth=1;autosize=1;spacing=4;treeFolding=1;treeMoving=1;newEdgeStyle={&quot;edgeStyle&quot;:&quot;entityRelationEdgeStyle&quot;,&quot;startArrow&quot;:&quot;none&quot;,&quot;endArrow&quot;:&quot;none&quot;,&quot;segment&quot;:10,&quot;curved&quot;:1,&quot;sourcePerimeterSpacing&quot;:0,&quot;targetPerimeterSpacing&quot;:0};" parent="1" vertex="1">
          <mxGeometry x="925" y="159" width="130" height="30" as="geometry" />
        </mxCell>
        <mxCell id="gM_SMo16ki_0aqtKTnfX-83" value="" style="edgeStyle=entityRelationEdgeStyle;startArrow=none;endArrow=none;segment=10;curved=1;sourcePerimeterSpacing=0;targetPerimeterSpacing=0;rounded=0;exitX=1;exitY=0.5;exitDx=0;exitDy=0;exitPerimeter=0;" parent="1" source="gM_SMo16ki_0aqtKTnfX-8" target="gM_SMo16ki_0aqtKTnfX-82" edge="1">
          <mxGeometry relative="1" as="geometry">
            <mxPoint x="960" y="100" as="sourcePoint" />
          </mxGeometry>
        </mxCell>
        <mxCell id="gM_SMo16ki_0aqtKTnfX-87" style="edgeStyle=entityRelationEdgeStyle;rounded=0;orthogonalLoop=1;jettySize=auto;html=1;startArrow=none;endArrow=none;segment=10;curved=1;sourcePerimeterSpacing=0;targetPerimeterSpacing=0;entryX=0.5;entryY=1;entryDx=0;entryDy=0;" parent="1" source="gM_SMo16ki_0aqtKTnfX-84" target="21ea969265ad0168-14" edge="1">
          <mxGeometry relative="1" as="geometry" />
        </mxCell>
        <mxCell id="gM_SMo16ki_0aqtKTnfX-84" value="Design Choices" style="whiteSpace=wrap;html=1;rounded=1;arcSize=50;align=center;verticalAlign=middle;strokeWidth=1;autosize=1;spacing=4;treeFolding=1;treeMoving=1;newEdgeStyle={&quot;edgeStyle&quot;:&quot;entityRelationEdgeStyle&quot;,&quot;startArrow&quot;:&quot;none&quot;,&quot;endArrow&quot;:&quot;none&quot;,&quot;segment&quot;:10,&quot;curved&quot;:1,&quot;sourcePerimeterSpacing&quot;:0,&quot;targetPerimeterSpacing&quot;:0};" parent="1" vertex="1">
          <mxGeometry x="50" y="251" width="130" height="30" as="geometry" />
        </mxCell>
        <mxCell id="gM_SMo16ki_0aqtKTnfX-88" value="" style="endArrow=classic;startArrow=classic;html=1;rounded=0;exitX=1;exitY=0.5;exitDx=0;exitDy=0;entryX=0;entryY=0.06;entryDx=0;entryDy=0;entryPerimeter=0;" parent="1" source="21ea969265ad0168-17" target="21ea969265ad0168-22" edge="1">
          <mxGeometry width="50" height="50" relative="1" as="geometry">
            <mxPoint x="340" y="260" as="sourcePoint" />
            <mxPoint x="390" y="210" as="targetPoint" />
            <Array as="points">
              <mxPoint x="420" y="200" />
            </Array>
          </mxGeometry>
        </mxCell>
        <mxCell id="gM_SMo16ki_0aqtKTnfX-89" value="We decided to have 3 separate tables within AWS for rapid access and each correlating to a different page within the webserver. Lambda and DynamoDB was chosen as it was simple to host and trace errors in API development.&amp;nbsp;" style="text;html=1;align=center;verticalAlign=middle;whiteSpace=wrap;rounded=0;" parent="1" vertex="1">
          <mxGeometry x="880" y="189" width="220" height="94" as="geometry" />
        </mxCell>
        <mxCell id="tbWjV2BsAmesTfMCvsu3-2" value="We decided to host the webserver and the Buy-Sell Algoriithm on the laptop since we were worried about overworking the Microcontroller, and would also be computed faster in the laptop. On top of this the ML model needs to store data locally, which is ultimately why we stuck to this design" style="text;html=1;align=left;verticalAlign=middle;whiteSpace=wrap;rounded=0;" parent="1" vertex="1">
          <mxGeometry x="50" y="265.5" width="220" height="169" as="geometry" />
        </mxCell>
      </root>
    </mxGraphModel>
  </diagram>
</mxfile>
